<svg width="60" height="60" viewBox="0 0 60 60" fill="none" xmlns="http://www.w3.org/2000/svg">
<path d="M42.6249 50.7C40.1749 53.075 37.4999 52.7 34.9249 51.575C32.1999 50.425 29.6999 50.375 26.8249 51.575C23.2249 53.125 21.3249 52.675 19.1749 50.7C6.97492 38.125 8.77492 18.975 22.6249 18.275C25.9999 18.45 28.3499 20.125 30.3249 20.275C33.2749 19.675 36.0999 17.95 39.2499 18.175C43.0249 18.475 45.8749 19.975 47.7499 22.675C39.9499 27.35 41.7999 37.625 48.9499 40.5C47.5249 44.25 45.6749 47.975 42.5999 50.725L42.6249 50.7ZM30.0749 18.125C29.6999 12.55 34.2249 7.95 39.4249 7.5C40.1499 13.95 33.5749 18.75 30.0749 18.125Z" fill="white"/>
</svg>
