<svg width="48" height="48" viewBox="0 0 48 48" fill="none" xmlns="http://www.w3.org/2000/svg">
<path fill-rule="evenodd" clip-rule="evenodd" d="M38.4881 24.1568L38.4881 24.1666L38.4888 24.1764C38.4911 24.2103 38.4931 24.2442 38.4946 24.2782C38.5082 24.5827 38.4956 24.8681 38.4617 25.14L38.4605 25.1496L38.4598 25.1593C37.9914 32.6057 31.8083 38.5 24.2501 38.5C16.4717 38.5 10.1495 32.257 10.0142 24.504L10.0141 24.4968L10.0136 24.4895C10.0027 24.3184 9.9983 24.1462 10.0006 23.9733C10.0041 23.7105 10.0208 23.4512 10.0502 23.1931L10.0509 23.1869L10.0514 23.1807C10.5976 15.81 16.7463 10 24.2501 10C32.0824 10 38.438 16.3294 38.4881 24.1568ZM35.6937 29.5547L36.0025 28.8886L35.3061 29.1212C34.927 29.2478 34.522 29.3281 34.0955 29.3549C32.2363 29.4721 30.2435 28.5906 28.9779 27.3073C25.5743 23.8562 23.4424 22.0219 21.5074 20.6425C20.2953 19.7785 18.66 19.123 17.0899 18.9575C15.5118 18.7912 14.1411 19.1276 13.2624 20.0499C12.7876 20.5482 12.4371 21.0038 12.1835 21.5105C11.9293 22.0184 11.7804 22.5615 11.6886 23.2258C11.6837 23.2609 11.6792 23.296 11.6749 23.3311L11.6739 23.339L11.6734 23.3469C11.6523 23.6453 11.6415 23.9464 11.6415 24.25C11.6415 24.3062 11.6419 24.3624 11.6427 24.4185L11.6428 24.4281L11.6435 24.4376C11.8366 27.0574 14.0223 29.395 16.6549 29.6779C19.635 29.9982 22.3779 28.458 24.8951 26.0062L26.0477 27.1596C23.3874 29.7553 20.1808 31.6977 16.4809 31.3001C15.6034 31.2058 14.7666 30.9399 14.0025 30.5381L12.955 29.9872L13.5875 30.9876C15.8212 34.5211 19.7616 36.8685 24.2501 36.8685C29.321 36.8685 33.6919 33.8727 35.6937 29.5547ZM36.8352 25.0073L36.8372 24.9935L36.838 24.9795C36.8518 24.738 36.8588 24.4946 36.8588 24.2498V24.2304L36.8574 24.2161C36.7103 22.59 35.2316 21.3526 33.7975 21.6115C32.7188 21.8062 31.4915 22.4048 30.2027 23.6277L29.0498 22.4739C30.531 21.0593 32.0466 20.2698 33.5083 20.0059C34.2699 19.8685 34.9937 19.9588 35.643 20.2155L36.3069 20.478L36.0559 19.8097C34.2609 15.032 29.6528 11.6315 24.2501 11.6315C19.9271 11.6315 16.1123 13.8092 13.8413 17.1267L13.3142 17.8966L14.201 17.6065C15.174 17.2883 16.2359 17.227 17.2605 17.335C19.1247 17.5315 21.0245 18.2955 22.4526 19.3135C24.4939 20.7687 26.6995 22.6752 30.1375 26.161C31.1164 27.1536 32.664 27.8105 33.9931 27.7267C35.385 27.639 36.4605 26.6881 36.7838 25.2802C36.8042 25.1913 36.8215 25.1006 36.8352 25.0073Z" fill="white"/>
</svg>
