<svg width="48" height="48" viewBox="0 0 48 48" fill="none" xmlns="http://www.w3.org/2000/svg">
<path fill-rule="evenodd" clip-rule="evenodd" d="M37.1144 24.568C37.4539 24.3762 37.7953 24.0662 38.1397 23.6421C38.491 23.1993 38.736 22.7988 38.8757 22.4387C39.0145 22.0785 38.9613 21.804 38.7153 21.616C38.4457 21.3946 38.1456 21.3789 37.814 21.5668C37.4824 21.7558 37.1449 22.0657 36.8015 22.4997C36.4413 22.9336 36.1934 23.3302 36.0585 23.6903C35.9237 24.0505 35.9828 24.3329 36.2367 24.5375C36.4817 24.7501 36.7749 24.7599 37.1144 24.568V24.568ZM33.0758 25.3909C32.3516 24.6667 31.9895 23.7279 31.9895 22.5737C31.9895 21.7629 32.2168 21.0091 32.6714 20.3095C33.125 19.6099 33.7183 19.0451 34.4504 18.6151C35.1835 18.1861 35.9707 17.9716 36.813 17.9716C37.5421 17.9716 38.1926 18.1388 38.7652 18.4744C39.3379 18.8089 39.7915 19.2675 40.1271 19.849C40.4626 20.4296 40.6309 21.0889 40.6309 21.8249C40.6309 22.676 40.4174 23.4534 39.9923 24.1569C39.5672 24.8605 38.9965 25.4234 38.2801 25.8445C37.5638 26.2666 36.7766 26.4762 35.9176 26.4762C34.7476 26.4762 33.8 26.1141 33.0758 25.3909V25.3909ZM30.6637 35.2151C30.0831 35.2151 29.6167 35.0498 29.2644 34.7182C28.9132 34.3876 28.737 33.9428 28.737 33.3868V25.9852C29.6295 26.5018 30.4472 26.8826 31.1911 27.1276C31.936 27.3727 32.7222 27.5321 33.5478 27.6059V33.3868C33.5478 33.9428 33.3726 34.3876 33.0204 34.7182C32.6681 35.0498 32.1977 35.2151 31.6093 35.2151H30.6637ZM28.8774 18.3459C29.1106 18.3164 29.2975 18.2091 29.4363 18.0212C29.575 17.8401 29.637 17.6424 29.6203 17.4249C29.6036 17.2094 29.5061 17.0264 29.3251 16.8798L28.1354 15.9095C27.9554 15.7708 27.7507 15.7068 27.5214 15.7196C27.2931 15.7324 27.1042 15.8357 26.9566 16.0325C26.8179 16.2126 26.7588 16.4084 26.7795 16.6219C26.7992 16.8345 26.8995 17.0185 27.0796 17.173L28.2456 18.155C28.4336 18.3115 28.6451 18.3744 28.8774 18.3459V18.3459ZM33.0568 13.7619C34.1539 14.2686 35.0376 15.0292 35.7087 16.0437C35.7244 16.0683 35.7411 16.089 35.7579 16.1047L35.8061 16.1539C34.7591 16.335 33.8056 16.7335 32.9466 17.3515C32.0876 17.9694 31.4027 18.734 30.891 19.6461C30.3793 20.5593 30.1235 21.5344 30.1235 22.5735C30.1235 22.9986 30.1629 23.408 30.2406 23.8016C30.3183 24.1932 30.4305 24.5661 30.5781 24.9174C30.1028 24.8033 29.6659 24.6606 29.2645 24.4884C28.864 24.3162 28.4753 24.1243 28.0984 23.9118C26.9777 23.2564 26.1226 22.4368 25.5332 21.4508C24.9447 20.4648 24.6495 19.3785 24.6495 18.1928C24.6495 17.1773 24.8631 16.2809 25.2881 15.5035C25.7142 14.7262 26.3105 14.1171 27.08 13.6753C27.8495 13.2325 28.741 13.0081 29.7555 13.0002C30.8605 13.0002 31.9606 13.2541 33.0568 13.7619V13.7619ZM20.5882 17.1722C20.7682 17.0177 20.8656 16.8337 20.8824 16.6212C20.8991 16.4076 20.8371 16.2118 20.6984 16.0318C20.5508 15.835 20.3628 15.7316 20.1336 15.7188C19.9043 15.7061 19.7006 15.77 19.5205 15.9088L18.3299 16.879C18.1577 17.0256 18.0613 17.2086 18.0416 17.4241C18.0209 17.6416 18.08 17.8394 18.2187 18.0204C18.3584 18.2084 18.5444 18.3156 18.7776 18.3451C19.0108 18.3737 19.2214 18.3107 19.4093 18.1542L20.5882 17.1722ZM14.6481 34.7179C14.2958 34.3873 14.1197 33.9425 14.1197 33.3866V27.6056C14.9384 27.5318 15.7197 27.3724 16.4645 27.1274C17.2094 26.8824 18.0271 26.5016 18.9186 25.985V33.3866C18.9186 33.9425 18.7435 34.3873 18.3912 34.7179C18.0389 35.0495 17.5735 35.2148 16.992 35.2148H16.0473C15.4668 35.2148 14.9994 35.0495 14.6481 34.7179V34.7179ZM20.576 13.6871C21.3455 14.1299 21.9447 14.737 22.3748 15.5104C22.8038 16.2829 23.0183 17.1773 23.0183 18.1928C23.0183 19.3785 22.7162 20.458 22.1101 21.4321C21.5049 22.4063 20.6537 23.2328 19.5576 23.9118C19.1974 24.1401 18.8127 24.3369 18.4033 24.5012C17.995 24.6645 17.5571 24.8033 17.0907 24.9174C17.2304 24.5661 17.3377 24.1932 17.4154 23.8016C17.4941 23.408 17.5325 22.9986 17.5325 22.5735C17.5325 21.5345 17.2767 20.5593 16.765 19.6462C16.2543 18.734 15.5685 17.9694 14.7094 17.3515C13.8504 16.7335 12.9018 16.335 11.8617 16.154C11.8706 16.1382 11.8844 16.1215 11.905 16.1048C11.9257 16.089 11.9405 16.0684 11.9483 16.0438C12.6184 15.0293 13.5021 14.2686 14.5992 13.7619C15.6954 13.2541 16.7965 13.0003 17.9005 13.0003C18.915 13.017 19.8075 13.2453 20.576 13.6871V13.6871ZM11.5722 23.6906C11.4374 23.3305 11.1895 22.9339 10.8303 22.5C10.478 22.0661 10.1366 21.7561 9.80497 21.5672C9.47336 21.3792 9.17718 21.395 8.91544 21.6164C8.66157 21.8043 8.60646 22.0789 8.74914 22.439C8.89281 22.7991 9.13979 23.1996 9.49206 23.6424C9.8276 24.0665 10.1671 24.3765 10.5105 24.5684C10.8539 24.7602 11.1491 24.7504 11.3941 24.5379C11.648 24.3332 11.707 24.0508 11.5722 23.6906V23.6906ZM9.34534 25.8443C8.63391 25.4231 8.06516 24.8603 7.63909 24.1567C7.21401 23.4532 7.00146 22.6758 7.00146 21.8246C7.00146 21.0886 7.16874 20.4293 7.50429 19.8488C7.84081 19.2672 8.29443 18.8087 8.86712 18.4741C9.4398 18.1386 10.0863 17.9713 10.8066 17.9713C11.6567 17.9713 12.4489 18.1858 13.181 18.6149C13.913 19.0449 14.5064 19.6097 14.961 20.3093C15.4146 21.0089 15.6419 21.7627 15.6419 22.5735C15.6419 23.7277 15.2798 24.6664 14.5556 25.3906C13.8314 26.1139 12.8848 26.476 11.7148 26.476C10.8469 26.476 10.0578 26.2664 9.34534 25.8443V25.8443Z" fill="white"/>
</svg>
