<svg width="48" height="48" viewBox="0 0 48 48" fill="none" xmlns="http://www.w3.org/2000/svg">
<path fill-rule="evenodd" clip-rule="evenodd" d="M24.145 13.8648C23.8262 14.5685 23.6773 15.3104 23.6773 16.0566V16.3734C23.6986 16.4584 23.7199 16.5434 23.7199 16.5647C23.8474 16.5881 23.975 16.6094 24.1238 16.6094C24.7828 16.6094 25.4844 16.418 26.2072 16.012C26.9512 15.6314 27.5465 15.1404 28.0354 14.5472C28.4819 14.0158 28.8645 13.3759 29.1409 12.6743C29.4385 11.9749 29.5661 11.25 29.5661 10.5059C29.5661 10.272 29.5448 10.0807 29.5236 9.91064C28.8008 9.95529 28.0354 10.1658 27.2276 10.5718C26.441 10.997 25.782 11.5051 25.2505 12.1216C24.8466 12.5914 24.4852 13.1633 24.145 13.8648ZM33.5622 35.2964C34.2638 34.2739 34.774 33.3406 35.0716 32.5094C35.3693 31.6803 35.5393 31.2338 35.5606 31.1934L35.5508 31.1881C35.4932 31.1563 35.3014 31.0506 34.9228 30.8533C34.5402 30.6386 34.0937 30.2984 33.5835 29.852C33.0733 29.3843 32.6268 28.7891 32.2442 28.045C31.8828 27.303 31.6915 26.3868 31.6915 25.3238C31.6915 24.3906 31.8403 23.5827 32.1379 22.9003C32.4355 22.22 32.7757 21.6673 33.1796 21.2209C33.5835 20.7744 33.9449 20.4343 34.2638 20.2004C34.3399 20.1451 34.4088 20.0956 34.4698 20.0518C34.6643 19.9119 34.7791 19.8294 34.7953 19.7986C34.1575 18.8611 33.4347 18.2042 32.6481 17.7982C31.8615 17.3964 31.1387 17.1413 30.4797 17.0541C29.7994 16.9691 29.3317 16.9265 29.0766 16.9265C28.3538 16.9265 27.6735 17.035 27.0357 17.2454L26.964 17.272C26.3548 17.4973 25.8048 17.7007 25.3138 17.9278C24.8035 18.1383 24.3571 18.2446 23.9744 18.2446C23.5705 18.2446 23.1241 18.1383 22.6351 17.9278C22.2539 17.7604 21.8469 17.6073 21.4241 17.4481C21.3045 17.4032 21.1838 17.3577 21.062 17.3113C20.488 17.0966 19.8927 17.0116 19.2549 17.0116C18.0644 17.0116 16.9165 17.3305 15.7897 17.9895C14.6843 18.6294 13.7701 19.6073 13.0473 20.8807C12.3458 22.1584 11.9844 23.7294 11.9844 25.6236C11.9844 27.3647 12.282 29.1079 12.8773 30.8299C13.4725 32.5732 14.1741 34.0188 15.0244 35.2114C15.7472 36.2297 16.4488 37.1013 17.129 37.8241C17.8093 38.5491 18.6172 38.9105 19.5101 38.9105C20.1266 38.9105 20.6368 38.802 21.0832 38.6107C21.38 38.4708 21.6861 38.3394 22.0016 38.2039C22.1608 38.1356 22.3224 38.0662 22.4863 37.9942C22.9753 37.8029 23.5918 37.6966 24.3146 37.6966C25.0799 37.6966 25.6964 37.8029 26.1429 37.9942C26.5207 38.1561 26.8833 38.3196 27.2435 38.4819C27.3089 38.5114 27.3743 38.5409 27.4397 38.5703C27.8648 38.7595 28.4176 38.8658 29.0766 38.8658C30.0545 38.8658 30.9049 38.4853 31.6064 37.7391C32.308 36.995 32.967 36.1872 33.5622 35.2964Z" fill="white"/>
</svg>
