<svg width="48" height="48" viewBox="0 0 48 48" fill="none" xmlns="http://www.w3.org/2000/svg">
<path d="M26.6 21.2071C26.8639 21.0512 27.179 21.0065 27.4759 21.0828C27.7728 21.1591 28.0272 21.3502 28.1833 21.6141L37.0586 36.6299C37.136 36.7607 37.1868 36.9054 37.2082 37.0558C37.2296 37.2063 37.2212 37.3594 37.1834 37.5066C37.1456 37.6538 37.0792 37.792 36.9879 37.9136C36.8967 38.0351 36.7824 38.1374 36.6516 38.2147C36.5209 38.2921 36.3761 38.3429 36.2257 38.3643C36.0753 38.3857 35.9221 38.3773 35.7749 38.3395C35.6278 38.3017 35.4895 38.2353 35.368 38.144C35.2465 38.0528 35.1441 37.9385 35.0668 37.8077L26.193 22.7904C26.0371 22.5264 25.9924 22.2113 26.0687 21.9144C26.145 21.6175 26.3361 21.3631 26.6 21.2071ZM20.4426 10.7854C20.5733 10.708 20.7181 10.6571 20.8685 10.6356C21.0189 10.6141 21.1721 10.6226 21.3193 10.6604C21.4665 10.6982 21.6048 10.7646 21.7263 10.8559C21.8478 10.9472 21.9501 11.0615 22.0274 11.1924L25.4961 17.0615C25.5734 17.1923 25.6241 17.337 25.6454 17.4874C25.6667 17.6378 25.6582 17.7909 25.6203 17.938C25.5825 18.0851 25.516 18.2233 25.4247 18.3447C25.3334 18.4661 25.2192 18.5683 25.0884 18.6456C24.9576 18.7228 24.8129 18.7735 24.6625 18.7948C24.5121 18.8162 24.359 18.8076 24.2119 18.7698C24.0648 18.7319 23.9266 18.6654 23.8052 18.5742C23.6838 18.4829 23.5815 18.3686 23.5043 18.2378L20.0356 12.3702C19.9581 12.2395 19.9072 12.0947 19.8858 11.9443C19.8643 11.7938 19.8727 11.6406 19.9105 11.4934C19.9483 11.3463 20.0148 11.208 20.1061 11.0865C20.1973 10.965 20.3117 10.8627 20.4426 10.7854ZM14.9018 33.9119C15.0324 33.9895 15.1465 34.0919 15.2374 34.2136C15.3284 34.3352 15.3946 34.4735 15.4321 34.6207C15.4696 34.7678 15.4777 34.921 15.4561 35.0713C15.4344 35.2216 15.3833 35.3662 15.3057 35.4968L13.9321 37.8093C13.8546 37.9399 13.7521 38.0539 13.6304 38.1449C13.5088 38.2358 13.3705 38.302 13.2233 38.3395C13.0762 38.377 12.9231 38.3851 12.7727 38.3635C12.6224 38.3418 12.4778 38.2907 12.3473 38.2132C12.2167 38.1356 12.1026 38.0331 12.0117 37.9115C11.9207 37.7899 11.8546 37.6516 11.8171 37.5044C11.7796 37.3573 11.7714 37.2041 11.7931 37.0538C11.8147 36.9035 11.8658 36.7589 11.9433 36.6284L13.3154 34.3159C13.3929 34.185 13.4955 34.0708 13.6172 33.9797C13.739 33.8886 13.8775 33.8224 14.0248 33.7848C14.1722 33.7473 14.3255 33.7392 14.476 33.761C14.6265 33.7828 14.7712 33.8341 14.9018 33.9119Z" fill="white"/>
<path d="M28.5562 10.7853C28.8203 10.9411 29.0117 11.1954 29.0883 11.4923C29.165 11.7893 29.1205 12.1045 28.9647 12.3686L18.0374 30.8686C17.9632 31.0049 17.8622 31.1248 17.7407 31.2213C17.6191 31.3178 17.4793 31.3888 17.3297 31.4301C17.1801 31.4714 17.0238 31.4822 16.8699 31.4618C16.7161 31.4414 16.5679 31.3902 16.4342 31.3113C16.3006 31.2324 16.1842 31.1274 16.092 31.0026C15.9998 30.8778 15.9336 30.7356 15.8975 30.5847C15.8614 30.4338 15.856 30.2771 15.8817 30.1241C15.9074 29.971 15.9636 29.8247 16.0471 29.6938L26.9729 11.1938C27.1287 10.9297 27.383 10.7383 27.6799 10.6617C27.9768 10.5851 28.292 10.6295 28.5562 10.7853ZM30.8008 30.2812C30.8008 29.9746 30.9227 29.6805 31.1395 29.4636C31.3563 29.2468 31.6504 29.125 31.9571 29.125H39.5313C39.838 29.125 40.1321 29.2468 40.3489 29.4636C40.5657 29.6805 40.6875 29.9746 40.6875 30.2812C40.6875 30.5879 40.5657 30.882 40.3489 31.0988C40.1321 31.3157 39.838 31.4375 39.5313 31.4375H31.9571C31.6504 31.4375 31.3563 31.3157 31.1395 31.0988C30.9227 30.882 30.8008 30.5879 30.8008 30.2812Z" fill="white"/>
<path d="M8.3125 30.2812C8.3125 29.9746 8.43432 29.6805 8.65116 29.4637C8.868 29.2468 9.16209 29.125 9.46875 29.125H26.5967C26.9033 29.125 27.1974 29.2468 27.4143 29.4637C27.6311 29.6805 27.7529 29.9746 27.7529 30.2812C27.7529 30.5879 27.6311 30.882 27.4143 31.0988C27.1974 31.3157 26.9033 31.4375 26.5967 31.4375H9.46875C9.16209 31.4375 8.868 31.3157 8.65116 31.0988C8.43432 30.882 8.3125 30.5879 8.3125 30.2812Z" fill="white"/>
</svg>
