<svg width="112" height="72" viewBox="0 0 112 72" fill="none" xmlns="http://www.w3.org/2000/svg">
<path d="M55.9698 59.9997C55.6213 60.0032 55.2781 59.9133 54.976 59.7394C54.674 59.5654 54.424 59.3136 54.2522 59.0103L51.1399 54.6734C51.0489 54.5239 50.9681 54.4741 50.872 54.4741H43.9466C41.8966 54.4741 39.9307 53.6598 38.4812 52.2103C37.0316 50.7608 36.2173 48.7948 36.2173 46.7449V22.7292C36.2173 20.6793 37.0316 18.7134 38.4812 17.2638C39.9307 15.8143 41.8966 15 43.9466 15H67.9931C70.043 15 72.009 15.8143 73.4585 17.2638C74.908 18.7134 75.7224 20.6793 75.7224 22.7292V46.7449C75.7224 48.7948 74.908 50.7608 73.4585 52.2103C72.009 53.6598 70.043 54.4741 67.9931 54.4741H61.0608C61.016 54.4741 60.9719 54.4858 60.9331 54.5081C60.8942 54.5304 60.8618 54.5625 60.8393 54.6012L57.6325 59.0825C57.4599 59.3675 57.2155 59.6023 56.9237 59.7633C56.6319 59.9242 56.303 60.0057 55.9698 59.9997ZM43.9466 16.6867C42.3495 16.6953 40.8207 17.3357 39.6943 18.4679C38.5679 19.6001 37.9353 21.1321 37.9349 22.7292V46.7449C37.9349 48.3393 38.5683 49.8684 39.6957 50.9958C40.8231 52.1232 42.3522 52.7565 43.9466 52.7565H50.8788C51.2269 52.7556 51.569 52.8467 51.8706 53.0204C52.1722 53.1941 52.4226 53.4444 52.5964 53.7459L55.7019 58.0811C55.9217 58.447 56.0643 58.3731 56.1897 58.1533L59.3982 53.6703C59.5733 53.3879 59.8184 53.1554 60.1096 52.9953C60.4009 52.8352 60.7285 52.753 61.0608 52.7565H67.9931C69.5875 52.7565 71.1166 52.1232 72.244 50.9958C73.3714 49.8684 74.0047 48.3393 74.0047 46.7449V22.7292C74.0043 21.1321 73.3718 19.6001 72.2454 18.4679C71.1189 17.3357 69.5902 16.6953 67.9931 16.6867H43.9466Z" fill="white"/>
<path d="M62.5828 29.8006C62.0209 30.1577 61.5573 30.6496 61.2339 31.2316C60.9106 31.8135 60.7377 32.467 60.7312 33.1327C60.7276 33.8837 60.9463 34.619 61.3599 35.2459C61.7734 35.8728 62.3633 36.3633 63.0551 36.6555C62.8021 37.5439 62.3996 38.3827 61.8648 39.1358C61.1279 40.1955 60.319 41.2759 59.1441 41.2759C57.9693 41.2759 57.6704 40.5751 56.2912 40.5751C54.9686 40.5751 54.4963 41.2948 53.4193 41.2948C52.3424 41.2948 51.5677 40.3106 50.6986 39.0791C49.5577 37.365 48.9286 35.3614 48.8848 33.3028C48.8132 32.6723 48.8709 32.0339 49.0542 31.4265C49.2375 30.819 49.5427 30.2553 49.9512 29.7697C50.3596 29.2842 50.8627 28.8869 51.4297 28.6022C51.9968 28.3175 52.6159 28.1513 53.2493 28.1139C54.4207 28.1139 55.3654 28.8713 56.0833 28.8713C56.8013 28.8713 57.8404 28.0761 59.1441 28.0761C59.8156 28.0544 60.4818 28.2007 61.0823 28.5019C61.6828 28.8031 62.1986 29.2495 62.5828 29.8006ZM56.1778 27.8871C56.0833 27.8871 56.006 27.8682 55.9322 27.8682C55.9322 27.8116 55.9133 27.6793 55.9133 27.547C55.9581 26.672 56.2977 25.8378 56.8769 25.1802C57.518 24.4179 58.4353 23.9411 59.4275 23.8542C59.4445 23.9679 59.4508 24.0829 59.4464 24.1977C59.4267 25.0888 59.1099 25.9479 58.5464 26.6384C58.2575 26.997 57.8984 27.2927 57.4911 27.5074C57.0838 27.7222 56.6369 27.8514 56.1778 27.8871Z" fill="white"/>
</svg>
