<svg width="48" height="48" viewBox="0 0 48 48" fill="none" xmlns="http://www.w3.org/2000/svg">
<path fill-rule="evenodd" clip-rule="evenodd" d="M30.8219 30.215C30.8219 31.5215 29.7531 32.5902 28.4466 32.5902H18.0089C16.7031 32.5902 15.6344 31.5215 15.6344 30.215V16.8845C15.6344 15.578 16.7031 14.5092 18.0089 14.5092H28.4466C29.7531 14.5092 30.8219 15.578 30.8219 16.8845V30.215ZM31.4782 18.2607V17.0113C31.4782 16.0408 31.05 15.1663 30.3727 14.5663C29.2425 13.565 28.5052 12.197 28.5052 10.6865V9.506C28.5052 8.678 27.8272 8 26.9992 8H19.479C18.651 8 17.9737 8.678 17.9737 9.506V10.6865C17.9737 12.197 17.2365 13.565 16.1055 14.5663C15.429 15.1663 15 16.0408 15 17.0113V30.0883C15 31.0588 15.429 31.9332 16.1055 32.5332C17.2365 33.5352 17.9737 34.904 17.9737 36.4145V37.5928C17.9737 38.4215 18.651 39.0988 19.479 39.0988H26.9992C27.8272 39.0988 28.5052 38.4215 28.5052 37.5928V36.4145C28.5052 34.904 29.2425 33.5352 30.3727 32.5332C31.05 31.9332 31.4782 31.0588 31.4782 30.0883V21.9672H31.473C31.887 21.9672 32.223 21.632 32.223 21.2172V19.0107C32.223 18.5967 31.887 18.2607 31.473 18.2607H31.4782Z" fill="white"/>
</svg>
