<svg width="60" height="60" viewBox="0 0 60 60" fill="none" xmlns="http://www.w3.org/2000/svg">
<path fill-rule="evenodd" clip-rule="evenodd" d="M19.4998 9C19.2003 9.00007 18.9076 9.08983 18.6595 9.25772C18.4114 9.42561 18.2193 9.66394 18.1078 9.942L15.5878 16.242H44.4118L41.8918 9.942C41.7804 9.66394 41.5883 9.42561 41.3402 9.25772C41.0921 9.08983 40.7994 9.00007 40.4998 9H19.4998ZM18.0178 49.728L15.7558 35.034H44.2438L41.9818 49.728C41.9274 50.0821 41.748 50.4049 41.4762 50.6382C41.2044 50.8715 40.8581 50.9999 40.4998 51H19.4998C19.1416 50.9999 18.7953 50.8715 18.5235 50.6382C18.2516 50.4049 18.0723 50.0821 18.0178 49.728ZM15.3478 19.989H44.6548C46.4548 19.989 47.9098 21.255 47.9098 22.815V28.461C47.9098 30.021 46.4518 31.281 44.6548 31.281H15.3448C13.5448 31.281 12.0898 30.021 12.0898 28.461V22.815C12.0898 21.255 13.5508 19.989 15.3478 19.989Z" fill="white"/>
</svg>
