<svg width="48" height="48" viewBox="0 0 48 48" fill="none" xmlns="http://www.w3.org/2000/svg">
<path fill-rule="evenodd" clip-rule="evenodd" d="M14 37H35V11H14V37ZM24.5 39.25C24.091 39.25 23.75 38.911 23.75 38.5C23.75 38.09 24.091 37.75 24.5 37.75C24.921 37.75 25.25 38.09 25.25 38.5C25.25 38.911 24.921 39.25 24.5 39.25V39.25ZM24.5 9.25C24.641 9.25 24.75 9.36 24.75 9.5C24.75 9.64 24.641 9.75 24.5 9.75C24.361 9.75 24.25 9.64 24.25 9.5C24.25 9.36 24.361 9.25 24.5 9.25V9.25ZM34 8H15C13.901 8 13 8.9 13 10V38C13 39.1 13.901 40 15 40H34C35.111 40 36 39.1 36 38V10C36 8.9 35.111 8 34 8V8Z" fill="white"/>
</svg>
