<svg width="112" height="72" viewBox="0 0 112 72" fill="none" xmlns="http://www.w3.org/2000/svg">
<mask id="mask0_35_648" style="mask-type:luminance" maskUnits="userSpaceOnUse" x="27" y="9" width="58" height="54">
<path d="M85 9H27V63H85V9Z" fill="white"/>
</mask>
<g mask="url(#mask0_35_648)">
<path d="M76.6299 56.5001C76.6299 56.7236 76.5636 56.942 76.4395 57.1279C76.3153 57.3137 76.1388 57.4585 75.9323 57.5441C75.7259 57.6296 75.4987 57.652 75.2795 57.6084C75.0603 57.5648 74.8589 57.4571 74.7009 57.2991C74.5428 57.1411 74.4352 56.9397 74.3916 56.7205C74.348 56.5013 74.3704 56.2741 74.4559 56.0676C74.5415 55.8612 74.6863 55.6847 74.8721 55.5605C75.0579 55.4363 75.2764 55.3701 75.4999 55.3701C75.7995 55.3704 76.0867 55.4896 76.2986 55.7014C76.5104 55.9133 76.6296 56.2005 76.6299 56.5001ZM84.9999 22.0001V56.0001C84.9999 56.7957 84.6838 57.5588 84.1212 58.1214C83.5586 58.684 82.7956 59.0001 81.9999 59.0001H68.9999C68.254 58.9983 67.5359 58.7168 66.9874 58.2113C67.1459 58.0067 67.2855 57.7882 67.4047 57.5585C67.6047 57.1623 67.7479 56.74 67.83 56.3039C67.9337 55.6889 67.9785 55.0655 67.9638 54.4421V54.0001H83.9999V24.0001H67.964V20.6049V20.3091C67.9627 19.9374 67.9496 19.5717 67.9217 19.2082C68.2651 19.0726 68.6307 19.002 68.9999 19.0001H81.9999C82.7956 19.0001 83.5586 19.3161 84.1212 19.8788C84.6838 20.4414 84.9999 21.2044 84.9999 22.0001ZM71.8749 21.5001C71.8749 21.4259 71.8529 21.3534 71.8117 21.2917C71.7705 21.2301 71.7119 21.182 71.6434 21.1536C71.5749 21.1252 71.4995 21.1178 71.4268 21.1323C71.354 21.1467 71.2872 21.1825 71.2347 21.2349C71.1823 21.2874 71.1466 21.3542 71.1321 21.4269C71.1176 21.4997 71.1251 21.5751 71.1535 21.6436C71.1818 21.7121 71.2299 21.7707 71.2916 21.8119C71.3532 21.8531 71.4257 21.8751 71.4999 21.8751C71.5994 21.875 71.6947 21.8355 71.765 21.7652C71.8354 21.6949 71.8749 21.5995 71.8749 21.5001ZM77.9999 21.5001C77.9997 21.4338 77.9733 21.3703 77.9265 21.3235C77.8796 21.2767 77.8162 21.2503 77.7499 21.2501H73.2499C73.1836 21.2501 73.12 21.2764 73.0731 21.3233C73.0262 21.3702 72.9999 21.4338 72.9999 21.5001C72.9999 21.5664 73.0262 21.63 73.0731 21.6768C73.12 21.7237 73.1836 21.7501 73.2499 21.7501H77.7499C77.8162 21.7499 77.8796 21.7235 77.9265 21.6766C77.9733 21.6298 77.9997 21.5663 77.9999 21.5001ZM77.2499 56.5001C77.2499 56.154 77.1473 55.8156 76.955 55.5278C76.7627 55.24 76.4894 55.0157 76.1696 54.8833C75.8498 54.7508 75.498 54.7162 75.1585 54.7837C74.819 54.8512 74.5072 55.0179 74.2625 55.2626C74.0177 55.5074 73.8511 55.8192 73.7835 56.1587C73.716 56.4981 73.7507 56.85 73.8831 57.1698C74.0156 57.4895 74.2399 57.7629 74.5277 57.9551C74.8154 58.1474 75.1538 58.2501 75.4999 58.2501C75.964 58.2501 76.4092 58.0657 76.7373 57.7375C77.0655 57.4093 77.2499 56.9642 77.2499 56.5001ZM32.9313 22.2549C32.6652 22.4238 32.3655 22.5327 32.053 22.574C31.7405 22.6153 31.4228 22.5881 31.1219 22.4941C30.821 22.4002 30.5442 22.2419 30.3107 22.0301C30.0772 21.8184 29.8927 21.5583 29.7699 21.268C29.6539 20.9609 29.6124 20.6307 29.649 20.3044C29.6855 19.9782 29.7991 19.6653 29.9802 19.3916C30.1614 19.1178 30.405 18.891 30.691 18.7298C30.9769 18.5686 31.2971 18.4777 31.6251 18.4645C32.085 18.4224 32.5457 18.5359 32.9336 18.7866C33.3214 19.0373 33.6139 19.4109 33.7644 19.8475C33.9149 20.2841 33.9146 20.7586 33.7635 21.195C33.6125 21.6315 33.3195 22.0046 32.9313 22.2549ZM36.6088 21.0401C36.2629 21.0524 35.9256 21.1511 35.6277 21.3272C35.3297 21.5033 35.0806 21.7512 34.903 22.0483C34.7254 22.3453 34.625 22.6821 34.6109 23.0279C34.5968 23.3737 34.6695 23.7176 34.8224 24.0281C34.9659 24.2926 35.1626 24.5246 35.4 24.7095C35.6374 24.8944 35.9105 25.0283 36.2021 25.1026C36.4937 25.177 36.7975 25.1903 37.0945 25.1418C37.3915 25.0932 37.6752 24.9837 37.9279 24.8203C38.3118 24.5673 38.6002 24.1935 38.7475 23.758C38.8948 23.3225 38.8926 22.8503 38.7411 22.4163C38.5897 21.9822 38.2976 21.6111 37.9114 21.3618C37.5251 21.1125 37.0667 20.9993 36.6088 21.0401ZM31.7121 23.6201C31.3754 23.6193 31.0436 23.7006 30.7454 23.8569C30.4472 24.0133 30.1917 24.24 30.0008 24.5174C29.81 24.7948 29.6897 25.1145 29.6503 25.4489C29.6109 25.7833 29.6537 26.1222 29.7748 26.4364C29.9308 26.7969 30.1821 27.1081 30.5017 27.3364C30.8213 27.5647 31.1972 27.7016 31.5888 27.7322C31.9804 27.7628 32.3729 27.6861 32.7242 27.5103C33.0754 27.3344 33.3721 27.0661 33.5822 26.7343C33.7714 26.4139 33.8706 26.0483 33.8693 25.6762C33.8679 25.3041 33.7661 24.9393 33.5745 24.6203C33.3829 24.3013 33.1088 24.0399 32.781 23.8639C32.4531 23.6878 32.0838 23.6036 31.7121 23.6201ZM45.5668 57.5589C45.7473 57.9068 45.9747 58.2282 46.2426 58.5143C45.9206 58.6658 45.581 58.7767 45.2316 58.8443C44.8336 58.9162 44.4304 58.9559 44.026 58.9631C43.6547 58.9746 43.1623 58.9731 42.7716 58.9731H32.7116H32.2956C32.185 58.9731 32.075 58.9727 31.9656 58.9719C31.3914 58.982 30.8174 58.9394 30.251 58.8445C29.8637 58.7723 29.4883 58.6466 29.1357 58.4708C28.4377 58.1202 27.8696 57.5562 27.5139 56.8608C27.3368 56.5114 27.2101 56.1387 27.1374 55.7538C27.0357 55.1374 26.9923 54.5129 27.008 53.8884C27.008 53.7802 27.008 53.6712 27.008 53.5615V21.1885C27.008 21.0786 27.008 20.9696 27.008 20.8615C26.9925 20.2369 27.0359 19.6123 27.1378 18.996C27.2105 18.6111 27.3373 18.2384 27.5143 17.8891C27.8699 17.1936 28.4381 16.6296 29.1361 16.2791C29.4887 16.1033 29.8641 15.9774 30.2514 15.9053C30.6495 15.8333 31.0527 15.7936 31.4572 15.7866C31.8285 15.7751 32.3209 15.7766 32.7116 15.7766H42.7716H43.1876C43.2976 15.7766 43.4076 15.7766 43.517 15.7778C44.0912 15.7676 44.6652 15.8103 45.2316 15.9052C45.581 15.9728 45.9206 16.0836 46.2426 16.2352C45.9747 16.5213 45.7473 16.8429 45.5668 17.1909C45.3667 17.587 45.2235 18.0094 45.1413 18.4455C45.0377 19.0605 44.993 19.684 45.0077 20.3075V20.6042V54.1442V54.4392C44.9929 55.0632 45.0376 55.6872 45.1413 56.3027C45.2233 56.7394 45.3665 57.1623 45.5668 57.5589ZM39.3868 21.5282C39.3868 21.2489 39.3868 21.0547 39.3863 20.8921C39.3863 20.7321 39.3843 20.5999 39.3802 20.4785C39.3747 20.2401 39.3479 20.0028 39.3002 19.7692C39.2489 19.5254 39.1643 19.2899 39.0488 19.0692C38.8082 18.6131 38.4353 18.2405 37.9791 18.0001C37.7584 17.8845 37.5229 17.8 37.2791 17.7487C37.0456 17.7008 36.8082 17.674 36.5699 17.6687C36.4486 17.6645 36.316 17.663 36.1561 17.6624C35.9937 17.6618 35.7994 17.6624 35.5201 17.6624H32.7809C32.5016 17.6624 32.3073 17.6624 32.1447 17.6624C31.9847 17.663 31.8524 17.6645 31.7311 17.6687C31.4925 17.674 31.2549 17.7008 31.0211 17.7487C30.7777 17.8 30.5425 17.8846 30.3222 18.0001C29.866 18.2408 29.4932 18.6137 29.2528 19.0701C29.1373 19.2908 29.0527 19.5263 29.0014 19.7701C28.9535 20.0036 28.9268 20.241 28.9214 20.4794C28.917 20.6008 28.9158 20.7332 28.9151 20.893V21.5291V24.6751V25.3111C28.9158 25.4711 28.917 25.6033 28.9214 25.7248C28.9268 25.9631 28.9536 26.2004 29.0014 26.434C29.0527 26.6777 29.1373 26.9133 29.2528 27.134C29.4933 27.5901 29.8661 27.9628 30.3222 28.2033C30.5427 28.3188 30.778 28.4034 31.0216 28.4547C31.2554 28.5026 31.493 28.5293 31.7316 28.5347C31.8529 28.5389 31.9853 28.5403 32.1452 28.541C32.3078 28.5416 32.5021 28.541 32.7814 28.541H35.5214H36.1574C36.3174 28.5403 36.4499 28.5389 36.5712 28.5347C36.8095 28.5293 37.0469 28.5025 37.2804 28.4547C37.5242 28.4034 37.7597 28.3188 37.9804 28.2033C38.4365 27.9628 38.8093 27.5901 39.0498 27.134C39.1653 26.9133 39.2499 26.6777 39.3012 26.434C39.3489 26.2004 39.3757 25.9631 39.3812 25.7248C39.3853 25.6033 39.3868 25.471 39.3873 25.3111C39.3878 25.1486 39.3878 24.9543 39.3878 24.6751L39.3868 21.5282ZM50.8644 16.7501H50.9818H51.091H61.8905H62.2592L62.5473 16.7511C62.9965 16.7425 63.4456 16.7745 63.8891 16.8468C64.1432 16.8937 64.3894 16.9762 64.6205 17.0918C65.0549 17.3115 65.4076 17.6644 65.6273 18.0988C65.7429 18.3297 65.8253 18.5758 65.8722 18.8298C65.9499 19.3213 65.9822 19.819 65.9687 20.3165V20.6047V53.9201V54.4348C65.9822 54.9317 65.9499 55.4287 65.8722 55.9197C65.8253 56.1738 65.7428 56.4201 65.6271 56.6512C65.4073 57.0857 65.0544 57.4386 64.6199 57.6583C64.389 57.7738 64.143 57.8562 63.8891 57.9031C63.5877 57.9575 63.2823 57.9871 62.9761 57.9916C62.7231 57.9995 62.405 58.0001 62.1161 58.0001H61.9999H61.8907H51.091H50.721L50.4339 57.9991C49.9845 58.0077 49.5352 57.9756 49.0916 57.9033C48.8378 57.8564 48.5918 57.774 48.3609 57.6585C47.9264 57.4388 47.5735 57.0859 47.3538 56.6514C47.2383 56.4204 47.1559 56.1743 47.109 55.9204C47.0311 55.43 46.9988 54.9335 47.0125 54.4372V54.1455V20.6055V20.3155C46.9988 19.8184 47.0312 19.3211 47.1093 18.8301C47.1562 18.576 47.2386 18.3297 47.3541 18.0986C47.574 17.6645 47.9266 17.3119 48.3607 17.0921C48.5918 16.9766 48.8379 16.8941 49.0919 16.8471C49.3933 16.7927 49.6987 16.7631 50.005 16.7586C50.258 16.7507 50.5761 16.7501 50.8644 16.7501ZM50.8644 15.7501C50.5656 15.7501 50.236 15.7509 49.9744 15.7591C49.6139 15.7654 49.2546 15.801 48.8999 15.8656C48.5548 15.9304 48.2205 16.0433 47.9067 16.2009C47.2843 16.5167 46.7786 17.0225 46.463 17.6451C46.3055 17.9588 46.1926 18.2931 46.1278 18.6382C46.0372 19.1912 45.9987 19.7515 46.0128 20.3117C46.0124 20.4087 46.0124 20.5064 46.0128 20.6049V54.1449V54.4382C45.9987 54.9983 46.0372 55.5586 46.1278 56.1116C46.1926 56.4566 46.3054 56.7909 46.463 57.1047C46.7787 57.7273 47.2845 58.2331 47.9071 58.5489C48.2209 58.7065 48.5552 58.8194 48.9003 58.8842C49.4046 58.9693 49.9157 59.0076 50.4271 58.9985C50.5243 58.9991 50.6221 58.9994 50.7204 58.9995H51.091H61.8905H62.1168C62.4157 58.9995 62.7455 58.9987 63.0075 58.9905C63.3677 58.9841 63.7268 58.9485 64.0812 58.884C64.4262 58.8192 64.7605 58.7064 65.0741 58.5487C65.6969 58.2331 66.2028 57.7272 66.5185 57.1045C66.6761 56.7907 66.7889 56.4564 66.8537 56.1114C66.9442 55.5584 66.9827 54.9981 66.9687 54.438V53.9208V20.6049C66.9687 20.5063 66.9687 20.4086 66.9687 20.3117C66.9827 19.7515 66.9442 19.1912 66.8537 18.6382C66.7889 18.2931 66.6761 17.9588 66.5185 17.6451C66.2028 17.0224 65.6969 16.5165 65.0741 16.2009C64.7604 16.0432 64.4262 15.9304 64.0812 15.8656C63.5769 15.7805 63.0657 15.7422 62.5543 15.7513C62.4572 15.7507 62.3594 15.7503 62.2611 15.7503H61.8905H51.091L50.8644 15.7501ZM58.5937 17.2601H54.421C54.1803 17.2626 53.9503 17.36 53.781 17.5311C53.6117 17.7021 53.5168 17.9331 53.5168 18.1738C53.5168 18.4145 53.6117 18.6455 53.781 18.8166C53.9503 18.9877 54.1803 19.0851 54.421 19.0876H58.5937C58.7145 19.0888 58.8344 19.0661 58.9463 19.0208C59.0583 18.9754 59.1602 18.9083 59.246 18.8233C59.3319 18.7384 59.4001 18.6372 59.4466 18.5257C59.4931 18.4142 59.5171 18.2946 59.5171 18.1738C59.5171 18.053 59.4931 17.9334 59.4466 17.8219C59.4001 17.7104 59.3319 17.6093 59.246 17.5243C59.1602 17.4393 59.0583 17.3722 58.9463 17.3269C58.8344 17.2815 58.7145 17.2588 58.5937 17.2601ZM58.6459 18.6238C58.5569 18.6238 58.4699 18.5974 58.3959 18.5479C58.3219 18.4985 58.2642 18.4282 58.2302 18.346C58.1961 18.2638 58.1872 18.1733 58.2046 18.086C58.2219 17.9987 58.2648 17.9185 58.3277 17.8556C58.3906 17.7926 58.4708 17.7498 58.5581 17.7324C58.6454 17.7151 58.7359 17.724 58.8181 17.758C58.9003 17.7921 58.9706 17.8498 59.0201 17.9238C59.0695 17.9978 59.0959 18.0848 59.0959 18.1738C59.0959 18.2329 59.0843 18.2914 59.0617 18.346C59.0391 18.4006 59.0059 18.4502 58.9641 18.492C58.9224 18.5338 58.8727 18.567 58.8181 18.5896C58.7635 18.6122 58.705 18.6238 58.6459 18.6238Z" fill="white"/>
</g>
</svg>
