<svg width="48" height="48" viewBox="0 0 48 48" fill="none" xmlns="http://www.w3.org/2000/svg">
<path fill-rule="evenodd" clip-rule="evenodd" d="M16.93 11.4223H18.55C18.6175 11.4223 18.6775 11.4748 18.6775 11.5423C18.6775 11.6098 18.6175 11.6623 18.55 11.6623H16.93C16.855 11.6623 16.8025 11.6098 16.8025 11.5423C16.8025 11.4748 16.855 11.4223 16.93 11.4223M19.03 11.4223H19.2925C19.36 11.4223 19.4125 11.4748 19.4125 11.5423C19.4125 11.6098 19.36 11.6623 19.2925 11.6623H19.03C18.9625 11.6623 18.9025 11.6098 18.9025 11.5423C18.9025 11.4748 18.9625 11.4223 19.03 11.4223M20.89 40.5448H12.1375C11.365 40.5448 10.735 39.9223 10.735 39.1573V12.5923C10.735 11.8273 11.365 11.2048 12.1375 11.2048H13.5475C13.6675 11.2048 13.765 11.3023 13.765 11.4223V11.5723C13.765 11.9548 14.08 12.2623 14.4625 12.2623H20.125V10.4998H12.1975C10.9825 10.4998 10 11.4748 10 12.6748V39.0748C10 40.2748 10.9825 41.2498 11.4475 41.2498H21.9025C21.9625 41.2498 21.3475 40.9798 20.89 40.5448" fill="white"/>
<path fill-rule="evenodd" clip-rule="evenodd" d="M37.2792 38.853C37.2792 39.7305 36.5585 40.4415 35.6697 40.4415H23.3337C22.4442 40.4415 21.7235 39.7297 21.7235 38.853V8.39775C21.7235 7.52025 22.4442 6.80925 23.3337 6.80925H24.9515C25.0895 6.80925 25.2012 6.9195 25.2012 7.056V7.227C25.2012 7.66425 25.5642 8.02275 26.0082 8.02275H32.9952C33.4385 8.02275 33.8015 7.66425 33.8015 7.227V7.056C33.8015 6.9195 33.914 6.80925 34.052 6.80925H35.6697C36.5585 6.80925 37.2792 7.52025 37.2792 8.39775V38.853ZM28.841 7.05375H30.7092C30.788 7.05375 30.8525 7.11675 30.8525 7.19475C30.8525 7.272 30.788 7.33575 30.7092 7.33575H28.841C28.7622 7.33575 28.6977 7.272 28.6977 7.19475C28.6977 7.11675 28.7622 7.05375 28.841 7.05375V7.05375ZM31.259 7.05375H31.5575C31.6362 7.05375 31.7007 7.11675 31.7007 7.19475C31.7007 7.272 31.6362 7.33575 31.5575 7.33575H31.259C31.1802 7.33575 31.1157 7.272 31.1157 7.19475C31.1157 7.11675 31.1802 7.05375 31.259 7.05375V7.05375ZM35.603 6H32.9952H26.0082H23.4005C22.0062 6 20.876 7.1145 20.876 8.49V38.7593C20.876 40.1348 22.0062 41.25 23.4005 41.25H35.603C36.9965 41.25 38.126 40.1348 38.126 38.7593V8.49C38.126 7.1145 36.9965 6 35.603 6V6Z" fill="white"/>
</svg>
