<svg width="112" height="72" viewBox="0 0 112 72" fill="none" xmlns="http://www.w3.org/2000/svg">
<path d="M32.7213 48.63C32.9413 48.68 33.1713 48.72 33.3913 48.75C34.7313 48.96 36.1213 49.01 37.4613 48.99H54.5613C55.9013 49 57.2913 48.96 58.6313 48.75C58.8613 48.71 59.0813 48.67 59.3013 48.63C60.5913 48.35 61.8013 47.87 62.4713 47.08C62.8713 46.6 63.0713 46.01 62.9813 45.29C62.9513 44.93 62.8913 44.59 62.8113 44.25C62.7313 43.91 62.6413 43.56 62.5613 43.2C62.2213 41.78 61.4913 38.81 61.2713 37.98C61.0713 37.23 60.9513 36.85 60.8313 36.52C60.2313 35.14 58.6013 34.5 56.8813 34.22C55.3413 33.99 53.2113 34.01 51.5013 34H40.2513C38.5413 34.01 36.6613 33.98 35.1213 34.22C33.4013 34.51 31.7713 35.14 31.1713 36.52C31.0413 36.85 30.9213 37.23 30.7313 37.98C30.5113 38.8 29.7913 41.78 29.4413 43.2C29.3513 43.56 29.2613 43.91 29.1913 44.25C29.1113 44.59 29.0513 44.93 29.0213 45.29C28.9313 46.02 29.1313 46.61 29.5313 47.08C30.2113 47.88 31.4213 48.36 32.7213 48.63ZM49.4113 39.95L50.7313 41.8H50.7513L51.8013 39.95H52.7813L51.2913 42.27H50.2513L48.4213 39.95H49.4113ZM45.3413 39.95H46.0413V39.41H46.9913L47.0013 39.94H47.9113L47.9213 40.3H47.0013L47.0213 41.61C47.0213 41.81 47.2113 41.91 47.6213 41.91C47.7313 41.91 47.8513 41.9 47.9613 41.9L47.9713 42.28C47.7913 42.29 47.6013 42.3 47.4113 42.3C46.4313 42.3 46.0513 42.12 46.0513 41.66V40.31H45.3313L45.3413 39.95ZM42.4813 39.26C42.7413 39.12 43.1013 39.04 43.4813 39.02C43.5013 39.2 43.3713 39.38 43.1113 39.52C42.8613 39.66 42.4813 39.75 42.0913 39.74C42.0813 39.57 42.2213 39.4 42.4813 39.26ZM39.5813 40.2C39.8913 39.96 40.4313 39.8 41.0213 39.8C41.4613 39.8 41.8613 39.94 42.1313 39.94C42.4013 39.94 42.8813 39.78 43.4413 39.79C43.9313 39.8 44.3913 39.92 44.6713 40.11C44.2213 40.24 43.9313 40.47 43.9113 40.73C43.9013 41.02 44.2613 41.29 44.8213 41.4C44.7113 41.57 44.5413 41.73 44.3313 41.88C44.0313 42.1 43.7013 42.3 43.2413 42.3C42.7713 42.3 42.6213 42.16 42.0913 42.16C41.5613 42.16 41.4013 42.29 40.9313 42.3C40.4613 42.31 40.1313 42.07 39.8513 41.87C39.2813 41.44 38.9213 40.69 39.5813 40.2ZM63.0113 47.8V54.71C63.0113 58.94 58.0013 58.95 54.6213 59.01H37.3913C34.0213 58.94 29.0113 58.93 29.0113 54.7V47.81C29.0113 47.79 29.0313 47.79 29.0413 47.8C29.5913 48.53 30.6113 49.2 32.5113 49.61C33.7413 49.87 35.2113 50 37.0113 50H54.9913C56.7913 50 58.2713 49.87 59.5013 49.61C61.4113 49.2 62.4313 48.52 62.9713 47.78C62.9913 47.77 63.0113 47.78 63.0113 47.8Z" fill="white"/>
<path fill-rule="evenodd" clip-rule="evenodd" d="M65.5161 23.2667C65.8055 23.2669 66.0859 23.367 66.3099 23.5501L67.0111 24.1243L69.0111 25.7643V30.9601C69.0108 31.241 68.899 31.5103 68.7002 31.7088C68.5014 31.9073 68.232 32.0187 67.9511 32.0185H63.0711C62.7902 32.0187 62.5207 31.9073 62.3219 31.7088C62.1232 31.5103 62.0113 31.241 62.0111 30.9601V25.7721L64.0111 24.1321L64.722 23.5491C64.9462 23.3663 65.2268 23.2665 65.5161 23.2667ZM64.0111 26.7158V30.0224H67.0111V26.708L65.516 25.482L64.0111 26.7158ZM65.5118 16.4732C65.985 16.4734 66.4427 16.6419 66.8031 16.9485L70.3984 19.984L74.0111 23.034V34.9559C74.0109 35.2183 73.959 35.4781 73.8583 35.7205C73.7577 35.9628 73.6103 36.1829 73.4246 36.3683C73.2389 36.5537 73.0184 36.7007 72.7759 36.8009C72.5334 36.901 72.2735 36.9525 72.0111 36.9522H63.5211L63.2823 35.9801C63.1616 35.5273 63.07 35.2094 62.99 34.9559H72.0111V23.9601L69.6661 21.98L68.7574 21.2129C68.6814 21.1226 68.5907 21.046 68.489 20.9862L67.3016 19.9838L65.5111 18.472L63.7211 19.9838L62.5332 20.9863C62.4315 21.0461 62.3407 21.1227 62.2648 21.213L61.3561 21.9801L59.0111 23.9601V32.24C58.9716 32.2332 58.932 32.2266 58.8923 32.2201C58.3279 32.1358 57.6843 32.0851 57.0111 32.0542V23.0339L60.6239 19.9838L64.2201 16.9475C64.5807 16.6411 65.0386 16.473 65.5118 16.4732ZM54.0111 32.0024V21.3033L60.4018 16.0483L62.8295 14.052L65.1926 12.1089C65.2824 12.0354 65.3949 11.9952 65.511 11.9952C65.6271 11.9952 65.7396 12.0354 65.8294 12.1089L68.1925 14.052L70.6202 16.0483L77.0111 21.3033V38.7561C77.0105 39.0872 76.8785 39.4046 76.6442 39.6385C76.4098 39.8724 76.0922 40.0038 75.7611 40.0038H64.2706L64.7609 42.0001H75.7611C76.1875 42.0005 76.6098 41.9169 77.0039 41.7541C77.398 41.5913 77.7561 41.3524 78.0579 41.0512C78.3597 40.75 78.5992 40.3923 78.7628 39.9985C78.9263 39.6047 79.0107 39.1825 79.0111 38.7561V22.9478L81.8754 25.3031C81.9766 25.3866 82.0932 25.4493 82.2186 25.4877C82.3441 25.5261 82.4759 25.5395 82.6064 25.5269C82.737 25.5144 82.8639 25.4763 82.9797 25.4148C83.0956 25.3532 83.1981 25.2695 83.2816 25.1683C83.3651 25.0671 83.4278 24.9504 83.4662 24.825C83.5047 24.6996 83.518 24.5678 83.5055 24.4372C83.4929 24.3066 83.4548 24.1798 83.3933 24.0639C83.3317 23.9481 83.248 23.8455 83.1468 23.762L79.0111 20.3613V14.5513C79.011 14.4529 78.9915 14.3555 78.9538 14.2646C78.916 14.1737 78.8608 14.0912 78.7911 14.0217C78.7215 13.9522 78.6388 13.8971 78.5479 13.8595C78.4569 13.8219 78.3595 13.8026 78.2611 13.8027H76.2611C76.0636 13.8065 75.8752 13.8865 75.7354 14.026C75.5956 14.1656 75.5152 14.3538 75.5111 14.5513V17.4835L73.766 16.0485L71.3383 14.0522L67.1011 10.5678C66.6526 10.2006 66.0907 10 65.5111 10C64.9314 10 64.3696 10.2006 63.9211 10.5678L59.6838 14.052L57.2561 16.0483L54.0111 18.7167L52.0111 20.3613L47.8755 23.762C47.6711 23.9306 47.5421 24.1735 47.5168 24.4372C47.4915 24.7009 47.572 24.9639 47.7406 25.1683C47.9092 25.3726 48.1521 25.5016 48.4158 25.5269C48.6796 25.5522 48.9425 25.4717 49.1469 25.3031L52.0111 22.9478V32.0001H53.5123C53.6751 32.0011 53.8416 32.0017 54.0111 32.0024Z" fill="white"/>
</svg>
