<svg width="48" height="48" viewBox="0 0 48 48" fill="none" xmlns="http://www.w3.org/2000/svg">
<path fill-rule="evenodd" clip-rule="evenodd" d="M10.1181 15.9947C10.4642 14.1944 11.8171 12.9369 13.408 12.9369H34.3235C35.938 12.9369 37.2604 14.1669 37.6183 16.0144L39.6556 24.6305C39.7873 25.19 39.7834 25.7878 39.5592 26.3168C39.1069 27.3806 38.0519 28.1299 36.8248 28.1299H10.9076C9.39444 28.1299 8.14179 26.9922 7.96088 25.5262C7.93531 25.3207 7.96383 25.1103 8.01102 24.9078L10.1181 15.9947ZM38.5334 15.8169C38.092 13.5339 36.3998 12 34.3222 12H13.4068C11.3597 12 9.62721 13.5692 9.1995 15.7983L7.10422 24.7162C7.03441 25.0112 7 25.314 7 25.6159V32.4287C7 34.586 8.74918 36.3352 10.9064 36.3352H36.8236C38.9808 36.3352 40.73 34.586 40.73 32.4278V25.6169C40.73 25.314 40.6946 25.0112 40.6258 24.7162L38.5334 15.8169Z" fill="white"/>
<path fill-rule="evenodd" clip-rule="evenodd" d="M16.7441 20.4368C16.866 20.6413 17.038 20.833 17.2435 21.0159C17.3684 21.127 17.5071 21.2332 17.6801 21.3227C17.7755 21.3738 17.8797 21.418 17.9997 21.4495C18.1442 21.4888 18.2956 21.5056 18.4559 21.4918C18.567 21.4829 18.6751 21.4652 18.7813 21.4436C18.8964 21.42 19.0104 21.3954 19.1264 21.3758C19.2808 21.3502 19.4381 21.3423 19.5974 21.3551C19.7361 21.365 19.8698 21.3856 20.0015 21.4102C20.1588 21.4407 20.3162 21.4711 20.4813 21.4849C20.6279 21.4977 20.7685 21.4869 20.9032 21.4544C21.0388 21.421 21.1539 21.3728 21.2591 21.3168C21.4105 21.2361 21.5364 21.1447 21.6504 21.0483C21.8372 20.891 21.9955 20.7268 22.1047 20.5489C22.1125 20.5371 22.1194 20.5243 22.1263 20.5115C22.0388 20.4977 21.9582 20.4761 21.8834 20.4505C21.7399 20.3994 21.6249 20.3326 21.5246 20.2568C21.2797 20.0749 21.1863 19.8704 21.2306 19.6462C21.2502 19.544 21.3122 19.4476 21.4066 19.3562C21.5078 19.2598 21.6475 19.1792 21.7959 19.1035C21.8422 19.0799 21.8884 19.0583 21.9356 19.0347C21.9149 19.0209 21.8962 19.0081 21.8766 18.9953C21.7684 18.9285 21.6524 18.8656 21.5167 18.8144C21.3201 18.7397 21.1018 18.6955 20.8638 18.6807C20.734 18.6719 20.6033 18.6719 20.4725 18.6807C20.3348 18.6915 20.2001 18.7082 20.0684 18.7328C19.9081 18.7604 19.7498 18.7918 19.5846 18.8115C19.4893 18.8213 19.3919 18.8292 19.2946 18.8174C19.1628 18.7997 19.0311 18.7839 18.9013 18.7643C18.685 18.7318 18.4677 18.7004 18.2425 18.6935C18.1147 18.6886 17.9869 18.6925 17.86 18.7053C17.5926 18.7348 17.3645 18.8046 17.1708 18.9078C16.9682 19.017 16.8217 19.1468 16.7214 19.2913C16.6182 19.4408 16.573 19.5971 16.5622 19.7574C16.5553 19.8685 16.5651 19.9796 16.5946 20.0897C16.6261 20.2087 16.6772 20.3237 16.7441 20.4368" fill="white"/>
<path fill-rule="evenodd" clip-rule="evenodd" d="M19.5845 18.6586C19.7054 18.6497 19.8205 18.631 19.9237 18.5937C20.2275 18.4865 20.4448 18.34 20.5717 18.1542C20.6356 18.0617 20.6759 17.9664 20.6719 17.8651C20.671 17.8395 20.6651 17.814 20.6493 17.7884C20.6464 17.7884 20.6454 17.7874 20.6434 17.7884C20.4625 17.812 20.2865 17.8435 20.1213 17.8916C19.9689 17.9359 19.8313 17.99 19.7202 18.0637C19.5796 18.1542 19.4822 18.2613 19.4203 18.3754C19.378 18.4511 19.3544 18.5298 19.3446 18.6084C19.3416 18.631 19.3446 18.6517 19.3446 18.6743H19.3633C19.437 18.6694 19.5107 18.6645 19.5845 18.6586" fill="white"/>
<path fill-rule="evenodd" clip-rule="evenodd" d="M23.8131 20.6698C23.8131 21.2057 24.1356 21.4377 25.3204 21.4377C25.5505 21.4377 25.8917 21.4239 25.9743 21.4161V20.9854C25.8966 20.9903 25.7118 20.9962 25.5731 20.9962C25.0245 20.9962 24.8269 20.9156 24.8269 20.6246V19.2067H25.9192V18.7662H24.8269V18.0996H23.8269V18.7662H23.0718V19.2067H23.8131V20.6698Z" fill="white"/>
<path fill-rule="evenodd" clip-rule="evenodd" d="M29.4368 21.421L31.1692 18.7485H30.0916L28.9117 20.8772H28.8694L27.7869 18.7485H26.667L28.3306 21.421H29.4368Z" fill="white"/>
</svg>
