<svg width="48" height="48" viewBox="0 0 48 48" fill="none" xmlns="http://www.w3.org/2000/svg">
<path d="M24.3027 30.9736C23.7363 30.9736 23.165 31.1299 22.5888 31.4423C22.0127 31.7451 21.4023 32.126 20.7578 32.585C20.1231 33.044 19.4297 33.5029 18.6777 33.9619C17.9355 34.4209 17.1152 34.8066 16.2168 35.1192C15.3281 35.4316 14.3369 35.5879 13.2431 35.5879C11.9248 35.5879 10.7041 35.3096 9.58105 34.7529C8.458 34.1963 7.47655 33.415 6.6367 32.4092C5.8066 31.3935 5.15718 30.2119 4.68843 28.8642C4.2295 27.5166 4 26.0517 4 24.4698C4 22.4092 4.34178 20.6904 5.0254 19.3135C5.70895 17.9268 6.6709 16.8134 7.9111 15.9736C9.15138 15.1337 10.6162 14.499 12.3056 14.0694C13.9951 13.6397 15.8555 13.3565 17.8867 13.2198C19.9179 13.0733 22.0566 13 24.3027 13C26.5391 13 28.6679 13.0733 30.6894 13.2198C32.7206 13.3565 34.581 13.6397 36.2705 14.0694C37.9697 14.4893 39.4395 15.1191 40.6797 15.959C41.9199 16.7988 42.8769 17.9121 43.5507 19.2988C44.2343 20.6758 44.5761 22.3994 44.5761 24.4698C44.5761 26.0517 44.3466 27.5166 43.8877 28.8642C43.4287 30.2119 42.7793 31.3935 41.9394 32.4092C41.0996 33.415 40.1181 34.1963 38.9951 34.7529C37.872 35.3096 36.6513 35.5879 35.333 35.5879C34.2392 35.5879 33.2432 35.4316 32.3447 35.1192C31.456 34.8066 30.6357 34.4209 29.8838 33.9619C29.1416 33.5029 28.4482 33.044 27.8037 32.585C27.1689 32.126 26.5635 31.7451 25.9873 31.4423C25.4111 31.1299 24.8496 30.9736 24.3027 30.9736ZM24.3027 29.1719C25.0644 29.1719 25.7773 29.3281 26.4414 29.6406C27.1152 29.9433 27.7695 30.3243 28.4043 30.7832C29.0391 31.2422 29.6982 31.7012 30.3818 32.1602C31.0654 32.6191 31.8076 33.0049 32.6084 33.3173C33.4189 33.6299 34.3271 33.7861 35.333 33.7861C36.8174 33.7861 38.1162 33.4004 39.2295 32.6289C40.3525 31.8574 41.2217 30.7783 41.8369 29.3916C42.4619 27.9951 42.7744 26.3545 42.7744 24.4698C42.7744 22.7217 42.4863 21.2617 41.9101 20.0898C41.3437 18.918 40.5234 17.9805 39.4492 17.2773C38.375 16.5742 37.0761 16.0469 35.5527 15.6953C34.0391 15.334 32.3349 15.0947 30.4404 14.9775C28.5458 14.8604 26.5 14.8017 24.3027 14.8017C22.086 14.8017 20.0303 14.8604 18.1357 14.9775C16.2412 15.0947 14.5322 15.334 13.0088 15.6953C11.4951 16.0469 10.2011 16.5742 9.12692 17.2773C8.0527 17.9805 7.22755 18.918 6.65132 20.0898C6.08492 21.2617 5.80172 22.7217 5.80172 24.4698C5.80172 26.3545 6.10938 27.9951 6.7246 29.3916C7.34958 30.7783 8.22363 31.8574 9.34668 32.6289C10.4697 33.4004 11.7685 33.7861 13.2431 33.7861C14.249 33.7861 15.1523 33.6299 15.9531 33.3173C16.7637 33.0049 17.5107 32.6191 18.1943 32.1602C18.8779 31.7012 19.5371 31.2422 20.1719 30.7832C20.8066 30.3243 21.456 29.9433 22.1201 29.6406C22.7939 29.3281 23.5215 29.1719 24.3027 29.1719Z" fill="white"/>
</svg>
