<svg width="32" height="32" viewBox="0 0 32 32" fill="none" xmlns="http://www.w3.org/2000/svg">
<path d="M28.675 14.5V14.87L16.345 7.80003C16.145 7.70003 15.905 6.70003 15.705 7.80003L3.375 14.87V14.5H2.005V19.97C2.005 20.23 2.135 20.48 2.405 20.62L14.815 26.72C15.575 27.09 16.475 27.09 17.235 26.72L29.645 20.62C29.915 20.49 30.045 20.23 30.045 19.97V14.5H28.675Z" fill="#321B41"/>
<path d="M2.40501 13.89L14.975 7.71997C15.635 7.38997 16.415 7.38997 17.075 7.71997L29.645 13.89C30.185 14.15 30.185 14.92 29.645 15.18L17.235 21.28C16.475 21.65 15.575 21.65 14.815 21.28L2.40501 15.18C2.28363 15.1215 2.18122 15.0299 2.10955 14.9158C2.03788 14.8017 1.99986 14.6697 1.99986 14.535C1.99986 14.4002 2.03788 14.2682 2.10955 14.1541C2.18122 14.04 2.28363 13.9485 2.40501 13.89ZM10.925 11.12C10.725 11.22 10.725 11.5 10.925 11.6L15.535 13.87C15.815 14.01 16.155 14.01 16.435 13.87L21.045 11.6C21.245 11.5 21.245 11.22 21.045 11.12L16.375 8.82997C16.255 8.76695 16.1218 8.73319 15.9862 8.73145C15.8507 8.72971 15.7166 8.76004 15.595 8.81997L10.925 11.12ZM22.025 12.17L11.065 17.53C10.865 17.63 10.865 17.91 11.065 18.01L15.675 20.28C15.955 20.42 16.295 20.42 16.575 20.28L27.475 14.95C27.675 14.85 27.675 14.57 27.475 14.47L22.805 12.17C22.6835 12.1108 22.5502 12.08 22.415 12.08C22.2799 12.08 22.1465 12.1108 22.025 12.17ZM4.57501 14.38C4.37501 14.48 4.37501 14.76 4.57501 14.86L9.18501 17.13C9.46501 17.27 9.80501 17.27 10.085 17.13L14.695 14.86C14.895 14.76 14.895 14.48 14.695 14.38L10.025 12.08C9.90179 12.0206 9.76678 11.9898 9.63001 11.9898C9.49324 11.9898 9.35822 12.0206 9.23501 12.08L4.57501 14.38Z" fill="#635994"/>
<path d="M21.335 9.76C21.335 9.72 21.335 9.67 21.325 9.63C21.2871 9.12273 21.0685 8.6459 20.7088 8.28621C20.3491 7.92652 19.8723 7.70787 19.365 7.67H19.325C18.675 7.64 18.075 7.31 17.675 6.8C17.285 6.31 16.695 6 16.025 6C15.355 6 14.755 6.31 14.375 6.8C13.965 7.31 13.375 7.64 12.725 7.67H12.685C11.635 7.73 10.795 8.58 10.715 9.62C10.715 9.64067 10.7133 9.66233 10.71 9.685L10.705 9.75C10.705 10.227 10.817 10.677 11.017 11.075L11.027 11.095C11.2032 11.4437 11.4481 11.7533 11.747 12.005L13.049 12.645C13.2483 12.6883 13.4537 12.71 13.665 12.71H18.365C18.5383 12.7107 18.7073 12.6973 18.872 12.67L20.397 11.919C20.6471 11.6845 20.8551 11.4088 21.012 11.104C21.219 10.701 21.335 10.244 21.335 9.76Z" fill="#44911B"/>
<path d="M17.32 9.32002C17.1083 9.37648 16.9048 9.46053 16.715 9.57002C16.295 9.82002 15.765 9.82002 15.345 9.57002L15.269 9.52602C14.8711 9.30733 14.4174 9.2113 13.965 9.25002C13.6341 9.27483 13.312 9.36847 13.0193 9.52492C12.7266 9.68138 12.4699 9.89722 12.2654 10.1586C12.061 10.42 11.9133 10.7212 11.832 11.043C11.7506 11.3647 11.7374 11.6999 11.793 12.027L15.535 13.87C15.815 14.01 16.155 14.01 16.435 13.87L20.275 11.98C20.3421 11.5303 20.28 11.0708 20.096 10.655C19.8658 10.1402 19.4606 9.72366 18.9524 9.47926C18.4442 9.23486 17.8659 9.17844 17.32 9.32002Z" fill="#86D72F"/>
<path d="M8.53801 13.109C8.57101 13.749 8.84701 14.325 9.27401 14.747C9.73756 15.205 10.3633 15.4613 11.015 15.46C11.511 15.46 11.955 15.7 12.235 16.071L10.085 17.13C9.80501 17.27 9.46501 17.27 9.18501 17.13L6.12601 15.624C5.68387 14.813 5.4531 13.9037 5.45501 12.98C5.45501 12.87 5.46501 12.77 5.48501 12.67C5.04206 12.4073 4.67474 12.0343 4.41886 11.5874C4.16299 11.1405 4.02729 10.6349 4.02501 10.12V9.20998C4.02501 8.53998 4.56501 7.97998 5.24501 7.97998C5.92501 7.97998 6.47501 8.52998 6.47501 9.20998V10.12C6.47501 10.4 6.70501 10.63 6.98501 10.63C7.26501 10.63 7.49501 10.4 7.49501 10.12V9.20998C7.49501 8.53998 8.05501 7.97998 8.73501 7.97998C9.41501 7.97998 9.96501 8.52998 9.96501 9.20998V10.12C9.96468 10.5145 9.88522 10.905 9.73131 11.2683C9.57741 11.6316 9.3522 11.9603 9.06901 12.235C8.89834 12.4016 8.71034 12.5466 8.50501 12.67L8.51201 12.708C8.52701 12.798 8.53501 12.892 8.53501 12.98L8.53801 13.109Z" fill="#FF6723"/>
<path d="M27.475 14.47L25.065 13.29C19.755 11.86 14.965 14.31 12.205 18.58L15.675 20.29C15.955 20.43 16.295 20.43 16.575 20.29L27.475 14.96C27.675 14.85 27.675 14.57 27.475 14.47Z" fill="#F4F4F4"/>
<path d="M20.725 13.63L20.365 14.09C20.285 14.19 20.305 14.34 20.405 14.42C20.505 14.5 20.655 14.48 20.735 14.38L21.095 13.92C21.175 13.82 21.155 13.67 21.055 13.59C21.0058 13.552 20.9435 13.535 20.8818 13.5424C20.8201 13.5499 20.7638 13.5814 20.725 13.63ZM23.345 14.56L22.775 14.43C22.7162 14.413 22.6656 14.3752 22.6325 14.3238C22.5994 14.2723 22.5861 14.2105 22.595 14.15C22.625 14.02 22.745 13.94 22.875 13.97L23.445 14.1C23.575 14.13 23.655 14.25 23.625 14.38C23.595 14.51 23.475 14.59 23.345 14.56ZM19.805 15.45L20.385 15.54C20.4159 15.5446 20.4455 15.5552 20.4723 15.5713C20.499 15.5873 20.5224 15.6085 20.5409 15.6336C20.5595 15.6586 20.5729 15.6871 20.5805 15.7174C20.5881 15.7477 20.5896 15.7791 20.585 15.81C20.5804 15.8408 20.5698 15.8705 20.5537 15.8973C20.5377 15.924 20.5165 15.9473 20.4914 15.9659C20.4664 15.9845 20.4379 15.9979 20.4076 16.0055C20.3773 16.0131 20.3459 16.0146 20.315 16.01L19.735 15.92C19.7041 15.9154 19.6745 15.9048 19.6477 15.8887C19.621 15.8727 19.5977 15.8515 19.5791 15.8264C19.5605 15.8013 19.5471 15.7729 19.5395 15.7426C19.5319 15.7123 19.5304 15.6808 19.535 15.65C19.5396 15.6191 19.5502 15.5895 19.5663 15.5627C19.5823 15.536 19.6035 15.5126 19.6286 15.4941C19.6537 15.4755 19.6821 15.462 19.7124 15.4545C19.7427 15.4469 19.7741 15.4454 19.805 15.45ZM19.505 17.12L19.265 17.65C19.2525 17.6782 19.2457 17.7086 19.245 17.7395C19.2443 17.7704 19.2497 17.8011 19.2608 17.8298C19.2719 17.8586 19.2886 17.8849 19.31 17.9073C19.3313 17.9296 19.3568 17.9475 19.385 17.96C19.4132 17.9725 19.4437 17.9793 19.4745 17.98C19.5054 17.9807 19.5361 17.9753 19.5649 17.9642C19.5936 17.953 19.62 17.9363 19.6423 17.915C19.6646 17.8937 19.6825 17.8682 19.695 17.84L19.935 17.31C19.985 17.19 19.935 17.05 19.815 17C19.695 16.95 19.565 17 19.505 17.12ZM17.475 18.72L16.905 18.59C16.8441 18.5766 16.791 18.5396 16.7572 18.4871C16.7235 18.4347 16.7119 18.371 16.725 18.31C16.755 18.18 16.875 18.1 17.005 18.13L17.575 18.26C17.705 18.29 17.785 18.41 17.755 18.54C17.725 18.67 17.605 18.75 17.475 18.72ZM23.175 16.06L22.765 16.47C22.675 16.56 22.525 16.56 22.435 16.47C22.3916 16.426 22.3673 16.3667 22.3673 16.305C22.3673 16.2432 22.3916 16.184 22.435 16.14L22.845 15.73C22.935 15.64 23.085 15.64 23.175 15.73C23.265 15.82 23.265 15.97 23.175 16.06ZM18.085 15.1L18.495 14.69C18.585 14.6 18.585 14.45 18.495 14.36C18.451 14.3166 18.3918 14.2923 18.33 14.2923C18.2683 14.2923 18.209 14.3166 18.165 14.36L17.755 14.77C17.665 14.86 17.665 15.01 17.755 15.1C17.845 15.19 17.995 15.19 18.085 15.1ZM25.605 14.51L26.075 14.86C26.175 14.94 26.195 15.09 26.105 15.2C26.025 15.3 25.875 15.32 25.775 15.24L25.315 14.88C25.2664 14.8412 25.2349 14.7849 25.2274 14.7232C25.22 14.6614 25.237 14.5992 25.275 14.55C25.355 14.45 25.505 14.43 25.605 14.51ZM16.415 16.74L16.855 16.36C16.955 16.28 16.965 16.13 16.885 16.03C16.845 15.9826 16.7879 15.9529 16.7262 15.9473C16.6644 15.9417 16.6029 15.9606 16.555 16L16.115 16.38C16.015 16.46 16.005 16.61 16.085 16.71C16.165 16.81 16.315 16.82 16.415 16.74ZM14.365 18.46L14.145 17.92C14.095 17.81 14.145 17.67 14.275 17.61C14.395 17.56 14.535 17.62 14.585 17.74L14.805 18.28C14.8282 18.3384 14.8277 18.4036 14.8033 18.4616C14.779 18.5195 14.733 18.5656 14.675 18.59C14.6166 18.6132 14.5514 18.6126 14.4934 18.5883C14.4355 18.564 14.3894 18.5179 14.365 18.46Z" fill="#D3D3D3"/>
</svg>
